<svg width="304" height="352" viewBox="0 0 304 352" fill="none" xmlns="http://www.w3.org/2000/svg">
<ellipse cx="152" cy="237.5" rx="152" ry="112.5" fill="#AF2EDC"/>
<path d="M282 237C282 290.572 223.125 334 150.5 334C77.8746 334 19 290.572 19 237C19 183.428 77.8746 140 150.5 140C223.125 140 282 183.428 282 237Z" fill="#FECFEF"/>
<path d="M51 155.974C51 158.737 50.4563 161.473 49.3999 164.026C48.3435 166.578 46.7951 168.897 44.8434 170.85C42.8916 172.803 40.5748 174.351 38.0252 175.407C35.4757 176.462 32.7436 177.003 29.985 177C29.2976 177 28.6102 177 27.9473 177C24.1236 176.621 20.4767 175.2 17.4032 172.89C14.3296 170.58 11.9472 167.47 10.5148 163.899C9.08241 160.327 8.65498 156.43 9.27897 152.632C9.90295 148.835 11.5545 145.281 14.0539 142.357C16.5534 139.434 19.8052 137.253 23.4556 136.052C27.106 134.85 31.0154 134.674 34.7586 135.543C38.5018 136.412 41.9356 138.292 44.6866 140.98C47.4376 143.667 49.4004 147.058 50.3617 150.785C50.7809 152.482 50.9952 154.225 51 155.974Z" fill="#E5E5E5" stroke="#E5E5E5" stroke-width="0.8" stroke-linecap="round" stroke-linejoin="round"/>
<path d="M287 155.974C287 158.737 286.456 161.473 285.4 164.026C284.343 166.578 282.795 168.897 280.843 170.85C278.892 172.803 276.575 174.351 274.025 175.407C271.476 176.462 268.744 177.003 265.985 177C265.298 177 264.61 177 263.947 177C260.124 176.621 256.477 175.2 253.403 172.89C250.33 170.58 247.947 167.47 246.515 163.899C245.082 160.327 244.655 156.43 245.279 152.632C245.903 148.835 247.554 145.281 250.054 142.357C252.553 139.434 255.805 137.253 259.456 136.052C263.106 134.85 267.015 134.674 270.759 135.543C274.502 136.412 277.936 138.292 280.687 140.98C283.438 143.667 285.4 147.058 286.362 150.785C286.781 152.482 286.995 154.225 287 155.974Z" fill="#E5E5E5" stroke="#E5E5E5" stroke-width="0.8" stroke-linecap="round" stroke-linejoin="round"/>
<path d="M157.736 25H146.264C145.566 25 145 29.8911 145 35.9245V71.0755C145 77.1089 145.566 82 146.264 82H157.736C158.434 82 159 77.1089 159 71.0755V35.9245C159 29.8911 158.434 25 157.736 25Z" fill="#FFF2F2"/>
<path d="M51 156.479C51 158.65 50.5728 160.8 49.7427 162.806C48.9127 164.812 47.6962 166.634 46.1626 168.168C44.6291 169.702 42.8087 170.919 40.8056 171.748C38.8024 172.577 36.6557 173.003 34.4882 173C33.9481 173 33.408 173 32.8872 173C29.8828 172.702 27.0174 171.585 24.6025 169.771C22.1876 167.956 20.3156 165.512 19.1902 162.706C18.0648 159.9 17.7289 156.838 18.2192 153.854C18.7095 150.87 20.0071 148.078 21.971 145.781C23.9348 143.484 26.4898 141.77 29.358 140.826C32.2261 139.882 35.2978 139.744 38.2389 140.427C41.18 141.11 43.878 142.587 46.0395 144.698C48.2009 146.81 49.7432 149.474 50.4985 152.402C50.8279 153.736 50.9962 155.105 51 156.479Z" fill="white" stroke="white" stroke-width="0.8" stroke-linecap="round" stroke-linejoin="round"/>
<path d="M278 156.479C278 158.65 277.573 160.8 276.743 162.806C275.913 164.812 274.696 166.634 273.163 168.168C271.629 169.702 269.809 170.919 267.806 171.748C265.802 172.577 263.656 173.003 261.488 173C260.948 173 260.408 173 259.887 173C256.883 172.702 254.017 171.585 251.602 169.771C249.188 167.956 247.316 165.512 246.19 162.706C245.065 159.9 244.729 156.838 245.219 153.854C245.709 150.87 247.007 148.078 248.971 145.781C250.935 143.484 253.49 141.77 256.358 140.826C259.226 139.882 262.298 139.744 265.239 140.427C268.18 141.11 270.878 142.587 273.039 144.698C275.201 146.81 276.743 149.474 277.498 152.402C277.828 153.736 277.996 155.105 278 156.479Z" fill="white" stroke="white" stroke-width="0.8" stroke-linecap="round" stroke-linejoin="round"/>
<path d="M171 18.9773C171 21.3459 170.495 23.6912 169.514 25.8792C168.533 28.0672 167.095 30.0549 165.283 31.7287C163.471 33.4025 161.319 34.7297 158.952 35.6342C156.585 36.5386 154.048 37.0028 151.486 37C150.848 37 150.209 37 149.594 37C146.043 36.6754 142.657 35.4569 139.803 33.477C136.949 31.497 134.737 28.8315 133.407 25.7702C132.077 22.7088 131.68 19.3689 132.259 16.1135C132.838 12.8582 134.372 9.81204 136.693 7.30632C139.014 4.8006 142.033 2.93126 145.423 1.9015C148.813 0.871744 152.443 0.720981 155.919 1.46568C159.395 2.21038 162.583 3.82203 165.138 6.12532C167.692 8.4286 169.515 11.3354 170.407 14.5296C170.797 15.9849 170.996 17.4782 171 18.9773Z" fill="#E5E5E5" stroke="#E5E5E5" stroke-width="0.8" stroke-linecap="round" stroke-linejoin="round"/>
<path d="M238.773 74H64.2269C53.6082 74 45 86.099 45 101.024V187.976C45 202.901 53.6082 215 64.2269 215H238.773C249.392 215 258 202.901 258 187.976V101.024C258 86.099 249.392 74 238.773 74Z" fill="#E5E5E5"/>
<path d="M232.037 82H68.9631C59.0424 82 51 92.8119 51 106.149V183.851C51 197.188 59.0424 208 68.9631 208H232.037C241.958 208 250 197.188 250 183.851V106.149C250 92.8119 241.958 82 232.037 82Z" fill="white" stroke="white" stroke-width="1.79925" stroke-linecap="round" stroke-linejoin="round"/>
<path d="M216.406 340.203L217.467 242.186C217.532 236.223 206.576 231.27 192.996 231.123L113.883 230.266C100.303 230.119 89.2429 234.834 89.1783 240.797L88.1169 338.814C88.0523 344.777 99.0082 349.73 112.588 349.877L191.701 350.734C205.28 350.881 216.341 346.166 216.406 340.203Z" fill="#E5E5E5" stroke="#E5E5E5" stroke-width="1.79925" stroke-linecap="round" stroke-linejoin="round"/>
<path d="M202.455 330.215L203.285 253.534C203.336 248.869 194.765 244.994 184.141 244.879L122.249 244.208C111.625 244.093 102.972 247.782 102.922 252.447L102.091 329.128C102.041 333.793 110.612 337.668 121.235 337.783L183.128 338.453C193.751 338.568 202.404 334.88 202.455 330.215Z" fill="white" stroke="white" stroke-width="1.79925" stroke-linecap="round" stroke-linejoin="round"/>
<path d="M220.655 94H81.3454C72.8704 94 66 102.924 66 113.933V178.067C66 189.076 72.8704 198 81.3454 198H220.655C229.13 198 236 189.076 236 178.067V113.933C236 102.924 229.13 94 220.655 94Z" fill="#E5E5E5"/>
<path d="M167 19.4805C167 21.5201 166.599 23.5396 165.819 25.4237C165.039 27.3079 163.896 29.0195 162.456 30.4608C161.015 31.9022 159.305 33.045 157.423 33.8239C155.542 34.6027 153.525 35.0024 151.489 35C150.982 35 150.474 35 149.985 35C147.163 34.7205 144.471 33.6712 142.202 31.9663C139.934 30.2613 138.175 27.966 137.118 25.3299C136.061 22.6937 135.745 19.8176 136.206 17.0144C136.666 14.2112 137.885 11.5881 139.73 9.43044C141.575 7.27274 143.975 5.66303 146.67 4.7763C149.364 3.88956 152.249 3.75973 155.012 4.401C157.775 5.04227 160.31 6.43008 162.34 8.41347C164.371 10.3969 165.819 12.8999 166.529 15.6505C166.838 16.9037 166.996 18.1895 167 19.4805Z" fill="#AF2EDC" stroke="#AF2EDC" stroke-width="0.8" stroke-linecap="round" stroke-linejoin="round"/>
<circle cx="99" cy="126" r="11" fill="black"/>
<circle cx="200" cy="126" r="11" fill="black"/>
<path d="M126 150C126.801 156.629 129.884 162.725 134.671 167.144C139.458 171.562 145.619 174 152 174C158.381 174 164.542 171.562 169.329 167.144C174.116 162.725 177.199 156.629 178 150H126Z" fill="black" stroke="black" stroke-width="1.79925" stroke-linecap="round" stroke-linejoin="round"/>
<path d="M161.502 172.603C161.151 169.39 161.288 168.482 159.172 166.339C157.057 164.196 154.333 163.012 151.511 163.009C148.689 163.006 145.962 164.185 143.843 166.325C141.724 168.464 142.36 169.39 142.002 172.603L151.511 174.651L161.502 172.603Z" fill="#FDB6DC" stroke="#FECFEF" stroke-width="1.79925" stroke-linecap="round" stroke-linejoin="round"/>
</svg>
