<svg width="615" height="129" viewBox="0 0 615 129" fill="none" xmlns="http://www.w3.org/2000/svg">
<path d="M493 89H484V20.75H493V89Z" fill="#2F2325"/>
<path d="M453.156 91H444.109L409.75 38.4062V91H400.703V22.75H409.75L444.203 75.5781V22.75H453.156V91Z" fill="#AF2EDC"/>
<path d="M363 89H354V20.75H363V89Z" fill="#2F2325"/>
<path d="M298.531 58.5781C290.812 56.3594 285.188 53.6406 281.656 50.4219C278.156 47.1719 276.406 43.1719 276.406 38.4219C276.406 33.0469 278.547 28.6094 282.828 25.1094C287.141 21.5781 292.734 19.8125 299.609 19.8125C304.297 19.8125 308.469 20.7187 312.125 22.5312C315.812 24.3438 318.656 26.8438 320.656 30.0312C322.688 33.2188 323.703 36.7031 323.703 40.4844H314.656C314.656 36.3594 313.344 33.125 310.719 30.7812C308.094 28.4062 304.391 27.2188 299.609 27.2188C295.172 27.2188 291.703 28.2031 289.203 30.1719C286.734 32.1094 285.5 34.8125 285.5 38.2812C285.5 41.0625 286.672 43.4219 289.016 45.3594C291.391 47.2656 295.406 49.0156 301.062 50.6094C306.75 52.2031 311.188 53.9688 314.375 55.9062C317.594 57.8125 319.969 60.0469 321.5 62.6094C323.062 65.1719 323.844 68.1875 323.844 71.6562C323.844 77.1875 321.688 81.625 317.375 84.9688C313.062 88.2812 307.297 89.9375 300.078 89.9375C295.391 89.9375 291.016 89.0469 286.953 87.2656C282.891 85.4531 279.75 82.9844 277.531 79.8594C275.344 76.7344 274.25 73.1875 274.25 69.2188H283.297C283.297 73.3438 284.812 76.6094 287.844 79.0156C290.906 81.3906 294.984 82.5781 300.078 82.5781C304.828 82.5781 308.469 81.6094 311 79.6719C313.531 77.7344 314.797 75.0938 314.797 71.75C314.797 68.4062 313.625 65.8281 311.281 64.0156C308.938 62.1719 304.688 60.3594 298.531 58.5781Z" fill="#AF2EDC"/>
<path d="M226.531 58.5781C218.812 56.3594 213.188 53.6406 209.656 50.4219C206.156 47.1719 204.406 43.1719 204.406 38.4219C204.406 33.0469 206.547 28.6094 210.828 25.1094C215.141 21.5781 220.734 19.8125 227.609 19.8125C232.297 19.8125 236.469 20.7187 240.125 22.5312C243.812 24.3438 246.656 26.8438 248.656 30.0312C250.688 33.2188 251.703 36.7031 251.703 40.4844H242.656C242.656 36.3594 241.344 33.125 238.719 30.7812C236.094 28.4062 232.391 27.2188 227.609 27.2188C223.172 27.2188 219.703 28.2031 217.203 30.1719C214.734 32.1094 213.5 34.8125 213.5 38.2812C213.5 41.0625 214.672 43.4219 217.016 45.3594C219.391 47.2656 223.406 49.0156 229.062 50.6094C234.75 52.2031 239.188 53.9688 242.375 55.9062C245.594 57.8125 247.969 60.0469 249.5 62.6094C251.062 65.1719 251.844 68.1875 251.844 71.6562C251.844 77.1875 249.688 81.625 245.375 84.9688C241.062 88.2812 235.297 89.9375 228.078 89.9375C223.391 89.9375 219.016 89.0469 214.953 87.2656C210.891 85.4531 207.75 82.9844 205.531 79.8594C203.344 76.7344 202.25 73.1875 202.25 69.2188H211.297C211.297 73.3438 212.812 76.6094 215.844 79.0156C218.906 81.3906 222.984 82.5781 228.078 82.5781C232.828 82.5781 236.469 81.6094 239 79.6719C241.531 77.7344 242.797 75.0938 242.797 71.75C242.797 68.4062 241.625 65.8281 239.281 64.0156C236.938 62.1719 232.688 60.3594 226.531 58.5781Z" fill="#2F2325"/>
<path d="M177.422 57.0781C177.422 63.7656 176.297 69.6094 174.047 74.6094C171.797 79.5781 168.609 83.375 164.484 86C160.359 88.625 155.547 89.9375 150.047 89.9375C144.672 89.9375 139.906 88.625 135.75 86C131.594 83.3438 128.359 79.5781 126.047 74.7031C123.766 69.7969 122.594 64.125 122.531 57.6875V52.7656C122.531 46.2031 123.672 40.4062 125.953 35.375C128.234 30.3438 131.453 26.5 135.609 23.8438C139.797 21.1563 144.578 19.8125 149.953 19.8125C155.422 19.8125 160.234 21.1406 164.391 23.7969C168.578 26.4219 171.797 30.25 174.047 35.2812C176.297 40.2812 177.422 46.1094 177.422 52.7656V57.0781ZM168.469 52.6719C168.469 44.5781 166.844 38.375 163.594 34.0625C160.344 29.7187 155.797 27.5469 149.953 27.5469C144.266 27.5469 139.781 29.7187 136.5 34.0625C133.25 38.375 131.578 44.375 131.484 52.0625V57.0781C131.484 64.9219 133.125 71.0938 136.406 75.5938C139.719 80.0625 144.266 82.2969 150.047 82.2969C155.859 82.2969 160.359 80.1875 163.547 75.9688C166.734 71.7188 168.375 65.6406 168.469 57.7344V52.6719Z" fill="#AF2EDC"/>
<path d="M73.375 61.3906H57.3438V89H48.2969V20.75H70.8906C78.5781 20.75 84.4844 22.5 88.6094 26C92.7656 29.5 94.8438 34.5938 94.8438 41.2812C94.8438 45.5312 93.6875 49.2344 91.375 52.3906C89.0938 55.5469 85.9062 57.9062 81.8125 59.4688L97.8438 88.4375V89H88.1875L73.375 61.3906ZM57.3438 54.0312H71.1719C75.6406 54.0312 79.1875 52.875 81.8125 50.5625C84.4688 48.25 85.7969 45.1562 85.7969 41.2812C85.7969 37.0625 84.5312 33.8281 82 31.5781C79.5 29.3281 75.875 28.1875 71.125 28.1562H57.3438V54.0312Z" fill="#2F2325"/>
</svg>
